<?xml version="1.0" encoding="utf-8"?>
<!-- Generator: Adobe Illustrator 24.2.1, SVG Export Plug-In . SVG Version: 6.00 Build 0)  -->
<svg version="1.1" id="Layer_1" xmlns="http://www.w3.org/2000/svg" xmlns:xlink="http://www.w3.org/1999/xlink" x="0px" y="0px"
	 viewBox="0 0 612 792" style="enable-background:new 0 0 612 792;" xml:space="preserve">
<style type="text/css">
	.st0{fill:#8CC542;}
	.st1{fill:#E9282A;}
	.st2{fill:#29ABE2;}
	.st3{fill:#FCDC07;}
	.st4{fill:#2F398F;}
	.st5{fill:#F69322;}
	.st6{fill:#E7168A;}
	.st7{fill:#D0D1D2;}
	.st8{fill:#04A54F;}
	.st9{fill:#231F20;}
	.st10{font-family:'Helvetica';}
	.st11{font-size:7px;}
	.st12{fill:#00A69C;}
	.st13{fill:#814296;}
	.st14{fill:#079247;}
	.st15{fill:none;stroke:#231F20;stroke-miterlimit:10;}
	.st16{font-size:7.4134px;}
	.st17{font-family:'Helvetica-Bold';}
	.st18{font-size:8px;}
	.st19{fill:url(#SVGID_1_);stroke:#6E7072;stroke-width:0.8735;stroke-miterlimit:10;}
	.st20{fill:url(#SVGID_2_);stroke:#6E7072;stroke-width:0.8735;stroke-miterlimit:10;}
	.st21{fill:url(#SVGID_3_);stroke:#6E7072;stroke-width:0.8735;stroke-miterlimit:10;}
	.st22{fill:url(#SVGID_4_);stroke:#6E7072;stroke-width:0.8735;stroke-miterlimit:10;}
	.st23{fill:url(#SVGID_5_);stroke:#6E7072;stroke-width:0.8735;stroke-miterlimit:10;}
	.st24{fill:url(#SVGID_6_);stroke:#6E7072;stroke-width:0.8735;stroke-miterlimit:10;}
	.st25{fill:url(#SVGID_7_);stroke:#6E7072;stroke-width:0.8735;stroke-miterlimit:10;}
	.st26{fill:url(#SVGID_8_);stroke:#6E7072;stroke-width:0.8735;stroke-miterlimit:10;}
	.st27{fill:url(#SVGID_9_);stroke:#6E7072;stroke-width:0.8735;stroke-miterlimit:10;}
	.st28{fill:url(#SVGID_10_);stroke:#6E7072;stroke-width:0.8735;stroke-miterlimit:10;}
	.st29{fill:url(#SVGID_11_);stroke:#6E7072;stroke-width:0.8735;stroke-miterlimit:10;}
	.st30{fill:url(#SVGID_12_);stroke:#6E7072;stroke-width:0.8735;stroke-miterlimit:10;}
	.st31{fill:url(#SVGID_13_);stroke:#6E7072;stroke-width:0.8735;stroke-miterlimit:10;}
	.st32{fill:url(#SVGID_14_);stroke:#6E7072;stroke-width:0.8735;stroke-miterlimit:10;}
	.st33{fill:url(#SVGID_15_);stroke:#6E7072;stroke-width:0.8735;stroke-miterlimit:10;}
	.st34{fill:url(#SVGID_16_);stroke:#6E7072;stroke-width:0.8735;stroke-miterlimit:10;}
	.st35{fill:none;stroke:#231F20;stroke-width:2;stroke-miterlimit:10;}
	.st36{fill:#FFFFFF;}
</style>
<rect x="352.6" y="395.9" class="st0" width="3.7" height="3.7"/>
<rect x="352.6" y="392.2" class="st1" width="3.7" height="3.7"/>
<rect x="352.6" y="399.6" class="st2" width="3.7" height="3.7"/>
<rect x="348.9" y="395.9" class="st3" width="3.7" height="3.7"/>
<rect x="348.9" y="392.2" class="st4" width="3.7" height="3.7"/>
<rect x="348.9" y="399.6" class="st5" width="3.7" height="3.7"/>
<rect x="345.3" y="395.9" class="st6" width="3.7" height="3.7"/>
<rect x="345.3" y="392.2" class="st7" width="3.7" height="3.7"/>
<rect x="345.3" y="399.6" class="st8" width="3.7" height="3.7"/>
<text transform="matrix(1 0 0 1 358.8853 394.9941)"><tspan x="0" y="0" class="st9 st10 st11">unique indels</tspan><tspan x="0" y="8.4" class="st9 st10 st11">(“character states”)</tspan></text>
<rect x="358.1" y="255.9" class="st7" width="16.4" height="16.4"/>
<rect x="341.7" y="255.9" class="st3" width="16.4" height="16.4"/>
<rect x="407.2" y="255.9" class="st1" width="16.4" height="16.4"/>
<rect x="374.4" y="255.9" class="st7" width="16.4" height="16.4"/>
<rect x="358.1" y="272.2" class="st0" width="16.4" height="16.4"/>
<rect x="341.7" y="272.2" class="st3" width="16.4" height="16.4"/>
<rect x="407.2" y="272.2" class="st1" width="16.4" height="16.4"/>
<rect x="374.4" y="272.2" class="st7" width="16.4" height="16.4"/>
<rect x="358.1" y="288.6" class="st4" width="16.4" height="16.4"/>
<rect x="341.7" y="288.6" class="st3" width="16.4" height="16.4"/>
<rect x="407.2" y="288.6" class="st1" width="16.4" height="16.4"/>
<rect x="374.4" y="288.6" class="st7" width="16.4" height="16.4"/>
<rect x="358.1" y="304.9" class="st7" width="16.4" height="16.4"/>
<rect x="341.7" y="304.9" class="st7" width="16.4" height="16.4"/>
<rect x="407.2" y="304.9" class="st1" width="16.4" height="16.4"/>
<rect x="374.4" y="304.9" class="st12" width="16.4" height="16.4"/>
<rect x="390.8" y="255.9" class="st5" width="16.4" height="16.4"/>
<rect x="390.8" y="272.2" class="st7" width="16.4" height="16.4"/>
<rect x="390.8" y="288.6" class="st5" width="16.4" height="16.4"/>
<rect x="390.8" y="304.9" class="st13" width="16.4" height="16.4"/>
<rect x="358.3" y="321.3" class="st6" width="16.4" height="16.4"/>
<rect x="341.9" y="321.3" class="st2" width="16.4" height="16.4"/>
<rect x="407.4" y="321.3" class="st7" width="16.4" height="16.4"/>
<rect x="374.6" y="321.3" class="st4" width="16.4" height="16.4"/>
<rect x="358.3" y="337.6" class="st7" width="16.4" height="16.4"/>
<rect x="341.9" y="337.6" class="st2" width="16.4" height="16.4"/>
<rect x="407.4" y="337.6" class="st14" width="16.4" height="16.4"/>
<rect x="374.6" y="337.6" class="st13" width="16.4" height="16.4"/>
<rect x="358.3" y="354" class="st7" width="16.4" height="16.4"/>
<rect x="341.9" y="354" class="st2" width="16.4" height="16.4"/>
<rect x="407.4" y="354" class="st0" width="16.4" height="16.4"/>
<rect x="374.6" y="354" class="st13" width="16.4" height="16.4"/>
<rect x="358.3" y="370.4" class="st6" width="16.4" height="16.4"/>
<rect x="341.9" y="370.4" class="st2" width="16.4" height="16.4"/>
<rect x="407.4" y="370.4" class="st7" width="16.4" height="16.4"/>
<rect x="374.6" y="370.4" class="st7" width="16.4" height="16.4"/>
<rect x="391" y="321.3" class="st7" width="16.4" height="16.4"/>
<rect x="391" y="337.6" class="st7" width="16.4" height="16.4"/>
<rect x="391" y="354" class="st7" width="16.4" height="16.4"/>
<rect x="391" y="370.4" class="st5" width="16.4" height="16.4"/>
<rect x="341.7" y="255.9" class="st15" width="81.8" height="130.8"/>
<text transform="matrix(1 0 0 1 332.2989 268.1123)" class="st9 st10 st16">A</text>
<text transform="matrix(1 0 0 1 332.46 284.1953)" class="st9 st10 st16">B</text>
<text transform="matrix(1 0 0 1 332.2549 300.2788)" class="st9 st10 st16">C</text>
<text transform="matrix(1 0 0 1 332.2549 316.3618)" class="st9 st10 st16">D</text>
<text transform="matrix(1 0 0 1 327.2125 243.4702)" class="st9 st17 st18">summarized character matrix</text>
<text transform="matrix(1 0 0 1 332.46 332.4448)" class="st9 st10 st16">E</text>
<text transform="matrix(1 0 0 1 332.6675 348.5288)" class="st9 st10 st16">F</text>
<text transform="matrix(1 0 0 1 332.0484 364.6113)" class="st9 st10 st16">G</text>
<text transform="matrix(1 0 0 1 366.4249 252.2378)" class="st9 st10 st11">characters</text>
<text transform="matrix(0 -1 1 0 329.8345 329.5542)" class="st9 st10 st11">cells</text>
<line class="st15" x1="328.1" y1="255.9" x2="328.1" y2="313.6"/>
<line class="st15" x1="328.1" y1="331.5" x2="328.1" y2="386.7"/>
<line class="st15" x1="423.5" y1="250.3" x2="402.4" y2="250.3"/>
<line class="st15" x1="364.2" y1="250.3" x2="341.7" y2="250.3"/>
<text transform="matrix(1 0 0 1 332.0938 380.6948)" class="st9 st10 st16">H</text>
<radialGradient id="SVGID_1_" cx="116.6971" cy="310.6595" r="5.1216" gradientTransform="matrix(0.6027 -0.798 0.798 0.6027 -147.0969 172.297)" gradientUnits="userSpaceOnUse">
	<stop  offset="0" style="stop-color:#FFFFFF"/>
	<stop  offset="1" style="stop-color:#B6B8BA"/>
</radialGradient>
<path class="st19" d="M174.2,262.3c2.3,1.7,2.7,4.9,1,7.2c-1.7,2.3-4.9,2.7-7.2,1c-2.3-1.7-2.7-4.9-1-7.2
	C168.8,261.1,172,260.6,174.2,262.3z"/>
<radialGradient id="SVGID_2_" cx="115.6106" cy="262.555" r="11.6901" gradientTransform="matrix(0.8169 0.5768 -0.5768 0.8169 229.623 -14.5232)" gradientUnits="userSpaceOnUse">
	<stop  offset="0" style="stop-color:#FFFFFF;stop-opacity:0"/>
	<stop  offset="1" style="stop-color:#C9CBCC"/>
</radialGradient>
<path class="st20" d="M175.2,279.7c-5.3-6.1-11.6-11.1-17-10.3c4.3-4.9,5.1-4.3,3.6-9.5c7.1,3.5,8.2-0.8,12.8-4.8
	c1.2,5,5.5,12.1,9.7,17C178.1,272.4,176.3,273.6,175.2,279.7z"/>
<radialGradient id="SVGID_3_" cx="-90.8588" cy="540.4507" r="5.6208" gradientTransform="matrix(-0.52 0.8542 0.8542 0.52 -288.4962 79.1073)" gradientUnits="userSpaceOnUse">
	<stop  offset="0" style="stop-color:#FFFFFF"/>
	<stop  offset="1" style="stop-color:#B6B8BA"/>
</radialGradient>
<path class="st21" d="M217.5,287.3c2.7,1.6,6.1,0.8,7.7-1.9c1.6-2.7,0.8-6.1-1.9-7.7c-2.7-1.6-6.1-0.8-7.7,1.9
	C214,282.3,214.8,285.7,217.5,287.3z"/>
<radialGradient id="SVGID_4_" cx="-92.2128" cy="542.1324" r="12.9464" gradientTransform="matrix(-0.52 0.8542 0.8542 0.52 -288.4962 79.1073)" gradientUnits="userSpaceOnUse">
	<stop  offset="0" style="stop-color:#FFFFFF;stop-opacity:0"/>
	<stop  offset="1" style="stop-color:#C9CBCC"/>
</radialGradient>
<path class="st22" d="M228,295.5c0.2-3,0.5-5.3,7.5-4.7c-6.3-13-14.6-14.7-19-23.7c-2.2,8.4-2.1,11.9-9,10.2
	C209.5,285.1,217.6,292.5,228,295.5z"/>
<radialGradient id="SVGID_5_" cx="-359.7534" cy="634.5896" r="5.1213" gradientTransform="matrix(0.2423 0.9702 -0.9702 0.2423 901.1117 461.6163)" gradientUnits="userSpaceOnUse">
	<stop  offset="0" style="stop-color:#FFFFFF"/>
	<stop  offset="1" style="stop-color:#B6B8BA"/>
</radialGradient>
<path class="st23" d="M199.5,271.3c-2.7,0.7-5.5-1-6.2-3.7c-0.7-2.7,1-5.5,3.7-6.2c2.7-0.7,5.5,1,6.2,3.7
	C203.9,267.8,202.2,270.6,199.5,271.3z"/>
<radialGradient id="SVGID_6_" cx="422.958" cy="749.6608" r="11.6908" gradientTransform="matrix(-0.9619 0.2733 -0.2733 -0.9619 810.3595 872.7315)" gradientUnits="userSpaceOnUse">
	<stop  offset="0" style="stop-color:#FFFFFF;stop-opacity:0"/>
	<stop  offset="1" style="stop-color:#C9CBCC"/>
</radialGradient>
<path class="st24" d="M186.8,261.1c8.1-0.3,16-2.1,18.7-6.8c1.1,6.4,0.1,6.7,5.1,8.8c-7.2,3.3-4.5,6.9-4.3,13
	c-4.6-2.2-12.8-3.3-19.3-3.1C190.7,267.9,190.9,265.8,186.8,261.1z"/>
<text transform="matrix(1 0 0 1 151.7178 248.5342)" class="st9 st17 st18">lineage tracing in cells</text>
<radialGradient id="SVGID_7_" cx="-92.3635" cy="366.8601" r="5.1212" gradientTransform="matrix(-0.5288 0.8488 -0.8488 -0.5288 481.0394 578.1597)" gradientUnits="userSpaceOnUse">
	<stop  offset="0" style="stop-color:#FFFFFF"/>
	<stop  offset="1" style="stop-color:#B6B8BA"/>
</radialGradient>
<path class="st25" d="M215.8,310.1c-2.4-1.5-3.1-4.7-1.6-7.1c1.5-2.4,4.7-3.1,7.1-1.6c2.4,1.5,3.1,4.7,1.6,7.1
	C221.3,310.9,218.2,311.6,215.8,310.1z"/>
<radialGradient id="SVGID_8_" cx="163.1759" cy="472.8779" r="11.6896" gradientTransform="matrix(-0.8653 -0.5013 0.5013 -0.8653 122.2235 797.5524)" gradientUnits="userSpaceOnUse">
	<stop  offset="0" style="stop-color:#FFFFFF;stop-opacity:0"/>
	<stop  offset="1" style="stop-color:#C9CBCC"/>
</radialGradient>
<path class="st26" d="M214.3,293.8c5.8,5.6,12.6,10.1,17.9,8.7c-3.8,5.3-4.7,4.8-2.8,9.8c-7.4-2.9-8.1,1.5-12.3,5.9
	c-1.6-4.8-6.6-11.5-11.2-16.1C212.1,301.4,213.8,300,214.3,293.8z"/>
<radialGradient id="SVGID_9_" cx="260.3451" cy="380.1857" r="5.6199" gradientTransform="matrix(0.493 -0.8702 -0.8702 -0.493 370.5189 702.5771)" gradientUnits="userSpaceOnUse">
	<stop  offset="0" style="stop-color:#FFFFFF"/>
	<stop  offset="1" style="stop-color:#B6B8BA"/>
</radialGradient>
<path class="st27" d="M170.8,283.7c-2.7-1.5-6.1-0.6-7.7,2.1c-1.5,2.7-0.6,6.1,2.1,7.7c2.7,1.5,6.1,0.6,7.7-2.1
	C174.5,288.7,173.5,285.2,170.8,283.7z"/>
<radialGradient id="SVGID_10_" cx="258.9913" cy="381.8686" r="12.9448" gradientTransform="matrix(0.493 -0.8702 -0.8702 -0.493 370.5189 702.5771)" gradientUnits="userSpaceOnUse">
	<stop  offset="0" style="stop-color:#FFFFFF;stop-opacity:0"/>
	<stop  offset="1" style="stop-color:#C9CBCC"/>
</radialGradient>
<path class="st28" d="M160.1,275.8c-0.1,3.1-0.4,5.3-7.3,4.9c6.7,12.8,15,14.3,19.7,23.1c1.9-8.4,1.7-11.9,8.7-10.5
	C178.9,285.6,170.5,278.6,160.1,275.8z"/>
<radialGradient id="SVGID_11_" cx="-189.5671" cy="761.1174" r="5.1217" gradientTransform="matrix(-0.3282 -0.9446 0.9446 -0.3282 -588.7137 383.5471)" gradientUnits="userSpaceOnUse">
	<stop  offset="0" style="stop-color:#FFFFFF"/>
	<stop  offset="1" style="stop-color:#B6B8BA"/>
</radialGradient>
<path class="st29" d="M190.8,308c2.7-0.9,5.6,0.5,6.5,3.2c0.9,2.7-0.5,5.6-3.2,6.5c-2.7,0.9-5.6-0.5-6.5-3.2
	C186.7,311.8,188.1,308.9,190.8,308z"/>
<radialGradient id="SVGID_12_" cx="555.1116" cy="583.104" r="11.6903" gradientTransform="matrix(0.9336 -0.3583 0.3583 0.9336 -535.1721 -33.522)" gradientUnits="userSpaceOnUse">
	<stop  offset="0" style="stop-color:#FFFFFF;stop-opacity:0"/>
	<stop  offset="1" style="stop-color:#C9CBCC"/>
</radialGradient>
<path class="st30" d="M204.3,317.1c-8,1-15.7,3.5-18,8.4c-1.7-6.3-0.7-6.7-5.9-8.3c6.9-3.9,3.9-7.3,3.2-13.3
	c4.8,1.8,13.1,2.1,19.5,1.4C199.8,310.6,199.9,312.7,204.3,317.1z"/>
<radialGradient id="SVGID_13_" cx="-67.2068" cy="302.8638" r="5.1215" gradientTransform="matrix(0.3834 0.9236 -0.9236 0.3834 498.7837 234.9517)" gradientUnits="userSpaceOnUse">
	<stop  offset="0" style="stop-color:#FFFFFF"/>
	<stop  offset="1" style="stop-color:#B6B8BA"/>
</radialGradient>
<path class="st31" d="M195.3,293.7c-2.6,1.1-5.6-0.2-6.7-2.8c-1.1-2.6,0.2-5.6,2.8-6.7c2.6-1.1,5.6,0.2,6.7,2.8
	C199.1,289.6,197.9,292.6,195.3,293.7z"/>
<radialGradient id="SVGID_14_" cx="101.1216" cy="446.2475" r="11.6907" gradientTransform="matrix(-0.9108 0.4128 -0.4128 -0.9108 470.0211 654.4979)" gradientUnits="userSpaceOnUse">
	<stop  offset="0" style="stop-color:#FFFFFF;stop-opacity:0"/>
	<stop  offset="1" style="stop-color:#C9CBCC"/>
</radialGradient>
<path class="st32" d="M181.1,285.4c8-1.5,15.5-4.4,17.5-9.5c2.1,6.2,1.1,6.6,6.4,7.9c-6.6,4.3-3.5,7.5-2.4,13.5
	c-4.9-1.5-13.2-1.3-19.6-0.2C186,291.7,185.8,289.5,181.1,285.4z"/>
<radialGradient id="SVGID_15_" cx="-460.2415" cy="160.5562" r="5.1212" gradientTransform="matrix(0.9741 -0.2263 0.2263 0.9741 579.8046 53.7379)" gradientUnits="userSpaceOnUse">
	<stop  offset="0" style="stop-color:#FFFFFF"/>
	<stop  offset="1" style="stop-color:#B6B8BA"/>
</radialGradient>
<path class="st33" d="M172.8,313.1c0.6,2.8-1.1,5.5-3.8,6.1c-2.8,0.6-5.5-1.1-6.1-3.8c-0.6-2.8,1.1-5.5,3.8-6.1
	C169.4,308.7,172.2,310.4,172.8,313.1z"/>
<radialGradient id="SVGID_16_" cx="-55.0166" cy="834.1686" r="11.6895" gradientTransform="matrix(0.2574 0.9663 -0.9663 0.2574 988.894 152.4564)" gradientUnits="userSpaceOnUse">
	<stop  offset="0" style="stop-color:#FFFFFF;stop-opacity:0"/>
	<stop  offset="1" style="stop-color:#C9CBCC"/>
</radialGradient>
<path class="st34" d="M162.3,325.7c-0.2-8.1-1.8-16-6.5-18.8c6.5-1,6.7,0,8.9-5c3.2,7.2,6.8,4.7,12.9,4.5
	c-2.3,4.6-3.5,12.8-3.5,19.3C169.2,321.9,167.1,321.7,162.3,325.7z"/>
<g>
	<g>
		<line class="st35" x1="257.1" y1="294.1" x2="303" y2="294.1"/>
		<g>
			<polygon class="st9" points="300.1,297.8 301.7,294.1 300.1,290.4 308.9,294.1 			"/>
		</g>
	</g>
</g>
<rect x="258.4" y="299.9" class="st9" width="49.3" height="22.5"/>
<text transform="matrix(1 0 0 1 261.8789 309)"><tspan x="0" y="0" class="st36 st17 st18">Cassiopeia</tspan><tspan x="-0.4" y="9.6" class="st36 st17 st18">Processing</tspan></text>
<text transform="matrix(1 0 0 1 263.4468 288.3413)" class="st9 st10 st11">pre-process</text>
</svg>
