<?xml version="1.0" encoding="utf-8"?>
<!-- Generator: Adobe Illustrator 24.2.1, SVG Export Plug-In . SVG Version: 6.00 Build 0)  -->
<svg version="1.1" id="Layer_1" xmlns="http://www.w3.org/2000/svg" xmlns:xlink="http://www.w3.org/1999/xlink" x="0px" y="0px"
	 viewBox="0 0 301 197" style="enable-background:new 0 0 301 197;" xml:space="preserve">
<style type="text/css">
	.st0{fill:#8CC542;}
	.st1{fill:#E9282A;}
	.st2{fill:#29ABE2;}
	.st3{fill:#FCDC07;}
	.st4{fill:#2F398F;}
	.st5{fill:#F69322;}
	.st6{fill:#E7168A;}
	.st7{fill:#D0D1D2;}
	.st8{fill:#04A54F;}
	.st9{fill:#231F20;}
	.st10{font-family:'Helvetica';}
	.st11{font-size:7px;}
	.st12{fill:#00A69C;}
	.st13{fill:#814296;}
	.st14{fill:#079247;}
	.st15{fill:none;stroke:#231F20;stroke-miterlimit:10;}
	.st16{font-size:7.4134px;}
	.st17{font-family:'Helvetica-Bold';}
	.st18{font-size:8px;}
	.st19{fill:url(#SVGID_1_);stroke:#6E7072;stroke-width:0.8735;stroke-miterlimit:10;}
	.st20{fill:url(#SVGID_2_);stroke:#6E7072;stroke-width:0.8735;stroke-miterlimit:10;}
	.st21{fill:url(#SVGID_3_);stroke:#6E7072;stroke-width:0.8735;stroke-miterlimit:10;}
	.st22{fill:url(#SVGID_4_);stroke:#6E7072;stroke-width:0.8735;stroke-miterlimit:10;}
	.st23{fill:url(#SVGID_5_);stroke:#6E7072;stroke-width:0.8735;stroke-miterlimit:10;}
	.st24{fill:url(#SVGID_6_);stroke:#6E7072;stroke-width:0.8735;stroke-miterlimit:10;}
	.st25{fill:url(#SVGID_7_);stroke:#6E7072;stroke-width:0.8735;stroke-miterlimit:10;}
	.st26{fill:url(#SVGID_8_);stroke:#6E7072;stroke-width:0.8735;stroke-miterlimit:10;}
	.st27{fill:url(#SVGID_9_);stroke:#6E7072;stroke-width:0.8735;stroke-miterlimit:10;}
	.st28{fill:url(#SVGID_10_);stroke:#6E7072;stroke-width:0.8735;stroke-miterlimit:10;}
	.st29{fill:url(#SVGID_11_);stroke:#6E7072;stroke-width:0.8735;stroke-miterlimit:10;}
	.st30{fill:url(#SVGID_12_);stroke:#6E7072;stroke-width:0.8735;stroke-miterlimit:10;}
	.st31{fill:url(#SVGID_13_);stroke:#6E7072;stroke-width:0.8735;stroke-miterlimit:10;}
	.st32{fill:url(#SVGID_14_);stroke:#6E7072;stroke-width:0.8735;stroke-miterlimit:10;}
	.st33{fill:url(#SVGID_15_);stroke:#6E7072;stroke-width:0.8735;stroke-miterlimit:10;}
	.st34{fill:url(#SVGID_16_);stroke:#6E7072;stroke-width:0.8735;stroke-miterlimit:10;}
	.st35{fill:none;stroke:#231F20;stroke-width:2;stroke-miterlimit:10;}
	.st36{fill:#FFFFFF;}
</style>
<rect x="212.6" y="168.9" class="st0" width="3.7" height="3.7"/>
<rect x="212.6" y="165.2" class="st1" width="3.7" height="3.7"/>
<rect x="212.6" y="172.6" class="st2" width="3.7" height="3.7"/>
<rect x="208.9" y="168.9" class="st3" width="3.7" height="3.7"/>
<rect x="208.9" y="165.2" class="st4" width="3.7" height="3.7"/>
<rect x="208.9" y="172.6" class="st5" width="3.7" height="3.7"/>
<rect x="205.3" y="168.9" class="st6" width="3.7" height="3.7"/>
<rect x="205.3" y="165.2" class="st7" width="3.7" height="3.7"/>
<rect x="205.3" y="172.6" class="st8" width="3.7" height="3.7"/>
<text transform="matrix(1 0 0 1 218.8853 167.9941)" class="st9 st10 st11">unique indels</text>
<text transform="matrix(1 0 0 1 218.8853 176.3941)" class="st9 st10 st11">(“character states”)</text>
<rect x="218.1" y="28.9" class="st7" width="16.4" height="16.4"/>
<rect x="201.7" y="28.9" class="st3" width="16.4" height="16.4"/>
<rect x="267.2" y="28.9" class="st1" width="16.4" height="16.4"/>
<rect x="234.4" y="28.9" class="st7" width="16.4" height="16.4"/>
<rect x="218.1" y="45.2" class="st0" width="16.4" height="16.4"/>
<rect x="201.7" y="45.2" class="st3" width="16.4" height="16.4"/>
<rect x="267.2" y="45.2" class="st1" width="16.4" height="16.4"/>
<rect x="234.4" y="45.2" class="st7" width="16.4" height="16.4"/>
<rect x="218.1" y="61.6" class="st4" width="16.4" height="16.4"/>
<rect x="201.7" y="61.6" class="st3" width="16.4" height="16.4"/>
<rect x="267.2" y="61.6" class="st1" width="16.4" height="16.4"/>
<rect x="234.4" y="61.6" class="st7" width="16.4" height="16.4"/>
<rect x="218.1" y="77.9" class="st7" width="16.4" height="16.4"/>
<rect x="201.7" y="77.9" class="st7" width="16.4" height="16.4"/>
<rect x="267.2" y="77.9" class="st1" width="16.4" height="16.4"/>
<rect x="234.4" y="77.9" class="st12" width="16.4" height="16.4"/>
<rect x="250.8" y="28.9" class="st5" width="16.4" height="16.4"/>
<rect x="250.8" y="45.2" class="st7" width="16.4" height="16.4"/>
<rect x="250.8" y="61.6" class="st5" width="16.4" height="16.4"/>
<rect x="250.8" y="77.9" class="st13" width="16.4" height="16.4"/>
<rect x="218.3" y="94.3" class="st6" width="16.4" height="16.4"/>
<rect x="201.9" y="94.3" class="st2" width="16.4" height="16.4"/>
<rect x="267.4" y="94.3" class="st7" width="16.4" height="16.4"/>
<rect x="234.6" y="94.3" class="st4" width="16.4" height="16.4"/>
<rect x="218.3" y="110.6" class="st7" width="16.4" height="16.4"/>
<rect x="201.9" y="110.6" class="st2" width="16.4" height="16.4"/>
<rect x="267.4" y="110.6" class="st14" width="16.4" height="16.4"/>
<rect x="234.6" y="110.6" class="st13" width="16.4" height="16.4"/>
<rect x="218.3" y="127" class="st7" width="16.4" height="16.4"/>
<rect x="201.9" y="127" class="st2" width="16.4" height="16.4"/>
<rect x="267.4" y="127" class="st0" width="16.4" height="16.4"/>
<rect x="234.6" y="127" class="st13" width="16.4" height="16.4"/>
<rect x="218.3" y="143.4" class="st6" width="16.4" height="16.4"/>
<rect x="201.9" y="143.4" class="st2" width="16.4" height="16.4"/>
<rect x="267.4" y="143.4" class="st7" width="16.4" height="16.4"/>
<rect x="234.6" y="143.4" class="st7" width="16.4" height="16.4"/>
<rect x="251" y="94.3" class="st7" width="16.4" height="16.4"/>
<rect x="251" y="110.6" class="st7" width="16.4" height="16.4"/>
<rect x="251" y="127" class="st7" width="16.4" height="16.4"/>
<rect x="251" y="143.4" class="st5" width="16.4" height="16.4"/>
<rect x="201.7" y="28.9" class="st15" width="81.8" height="130.8"/>
<text transform="matrix(1 0 0 1 192.2989 41.1123)" class="st9 st10 st16">A</text>
<text transform="matrix(1 0 0 1 192.46 57.1953)" class="st9 st10 st16">B</text>
<text transform="matrix(1 0 0 1 192.2549 73.2788)" class="st9 st10 st16">C</text>
<text transform="matrix(1 0 0 1 192.2549 89.3618)" class="st9 st10 st16">D</text>
<text transform="matrix(1 0 0 1 187.2125 16.4702)" class="st9 st17 st18">summarized character matrix</text>
<text transform="matrix(1 0 0 1 192.46 105.4448)" class="st9 st10 st16">E</text>
<text transform="matrix(1 0 0 1 192.6675 121.5288)" class="st9 st10 st16">F</text>
<text transform="matrix(1 0 0 1 192.0484 137.6113)" class="st9 st10 st16">G</text>
<text transform="matrix(1 0 0 1 226.4249 25.2378)" class="st9 st10 st11">characters</text>
<text transform="matrix(0 -1 1 0 189.8345 102.5547)" class="st9 st10 st11">cells</text>
<line class="st15" x1="188.1" y1="28.9" x2="188.1" y2="86.6"/>
<line class="st15" x1="188.1" y1="104.5" x2="188.1" y2="159.7"/>
<line class="st15" x1="283.5" y1="23.3" x2="262.4" y2="23.3"/>
<line class="st15" x1="224.2" y1="23.3" x2="201.7" y2="23.3"/>
<text transform="matrix(1 0 0 1 192.0938 153.6948)" class="st9 st10 st16">H</text>
<radialGradient id="SVGID_1_" cx="-23.3029" cy="254.3405" r="5.1216" gradientTransform="matrix(0.6027 -0.798 -0.798 -0.6027 248.1511 174.1025)" gradientUnits="userSpaceOnUse">
	<stop  offset="0" style="stop-color:#FFFFFF"/>
	<stop  offset="1" style="stop-color:#B6B8BA"/>
</radialGradient>
<path class="st19" d="M34.2,35.3c2.3,1.7,2.7,4.9,1,7.2c-1.7,2.3-4.9,2.7-7.2,1s-2.7-4.9-1-7.2C28.8,34.1,32,33.6,34.2,35.3z"/>
<radialGradient id="SVGID_2_" cx="-24.4114" cy="302.4432" r="11.7029" gradientTransform="matrix(0.8169 0.5768 0.5768 -0.8169 -121.903 300.7773)" gradientUnits="userSpaceOnUse">
	<stop  offset="0" style="stop-color:#FFFFFF;stop-opacity:0"/>
	<stop  offset="1" style="stop-color:#C9CBCC"/>
</radialGradient>
<path class="st20" d="M35.2,52.7c-5.3-6.1-11.6-11.1-17-10.3c4.3-4.9,5.1-4.3,3.6-9.5c7.1,3.5,8.2-0.8,12.8-4.8
	c1.2,5,5.5,12.1,9.7,17C38.1,45.4,36.3,46.6,35.2,52.7z"/>
<radialGradient id="SVGID_3_" cx="-230.8588" cy="24.5493" r="5.6208" gradientTransform="matrix(-0.52 0.8542 -0.8542 -0.52 -18.6732 265.4953)" gradientUnits="userSpaceOnUse">
	<stop  offset="0" style="stop-color:#FFFFFF"/>
	<stop  offset="1" style="stop-color:#B6B8BA"/>
</radialGradient>
<path class="st21" d="M77.5,60.3c2.7,1.6,6.1,0.8,7.7-1.9c1.6-2.7,0.8-6.1-1.9-7.7s-6.1-0.8-7.7,1.9C74,55.3,74.8,58.7,77.5,60.3z"
	/>
<radialGradient id="SVGID_4_" cx="-232.2128" cy="22.8676" r="12.9464" gradientTransform="matrix(-0.52 0.8542 -0.8542 -0.52 -18.6732 265.4953)" gradientUnits="userSpaceOnUse">
	<stop  offset="0" style="stop-color:#FFFFFF;stop-opacity:0"/>
	<stop  offset="1" style="stop-color:#C9CBCC"/>
</radialGradient>
<path class="st22" d="M88,68.5c0.2-3,0.5-5.3,7.5-4.7c-6.3-13-14.6-14.7-19-23.7c-2.2,8.4-2.1,11.9-9,10.2
	C69.5,58.1,77.6,65.5,88,68.5z"/>
<radialGradient id="SVGID_5_" cx="-499.7517" cy="-69.5896" r="5.1205" gradientTransform="matrix(0.2423 0.9702 0.9702 -0.2423 246.8707 507.3438)" gradientUnits="userSpaceOnUse">
	<stop  offset="0" style="stop-color:#FFFFFF"/>
	<stop  offset="1" style="stop-color:#B6B8BA"/>
</radialGradient>
<path class="st23" d="M59.5,44.3c-2.7,0.7-5.5-1-6.2-3.7s1-5.5,3.7-6.2s5.5,1,6.2,3.7S62.2,43.6,59.5,44.3z"/>
<radialGradient id="SVGID_6_" cx="282.958" cy="-184.6608" r="11.6908" gradientTransform="matrix(-0.9619 0.2733 0.2733 0.9619 381.279 140.52)" gradientUnits="userSpaceOnUse">
	<stop  offset="0" style="stop-color:#FFFFFF;stop-opacity:0"/>
	<stop  offset="1" style="stop-color:#C9CBCC"/>
</radialGradient>
<path class="st24" d="M46.8,34.1c8.1-0.3,16-2.1,18.7-6.8c1.1,6.4,0.1,6.7,5.1,8.8c-7.2,3.3-4.5,6.9-4.3,13
	C61.7,46.9,53.5,45.8,47,46C50.7,40.9,50.9,38.8,46.8,34.1z"/>
<text transform="matrix(1 0 0 1 11.7178 21.5342)" class="st9 st17 st18">lineage tracing in cells</text>
<radialGradient id="SVGID_7_" cx="-232.3635" cy="198.1399" r="5.1212" gradientTransform="matrix(-0.5288 0.8488 0.8488 0.5288 -212.5646 171.2197)" gradientUnits="userSpaceOnUse">
	<stop  offset="0" style="stop-color:#FFFFFF"/>
	<stop  offset="1" style="stop-color:#B6B8BA"/>
</radialGradient>
<path class="st25" d="M75.8,83.1c-2.4-1.5-3.1-4.7-1.6-7.1s4.7-3.1,7.1-1.6c2.4,1.5,3.1,4.7,1.6,7.1C81.3,83.9,78.2,84.6,75.8,83.1z
	"/>
<radialGradient id="SVGID_8_" cx="23.1759" cy="92.1221" r="11.6896" gradientTransform="matrix(-0.8653 -0.5013 -0.5013 0.8653 144.316 11.4759)" gradientUnits="userSpaceOnUse">
	<stop  offset="0" style="stop-color:#FFFFFF;stop-opacity:0"/>
	<stop  offset="1" style="stop-color:#C9CBCC"/>
</radialGradient>
<path class="st26" d="M74.3,66.8c5.8,5.6,12.6,10.1,17.9,8.7c-3.8,5.3-4.7,4.8-2.8,9.8c-7.4-2.9-8.1,1.5-12.3,5.9
	c-1.6-4.8-6.6-11.5-11.2-16.1C72.1,74.4,73.8,73,74.3,66.8z"/>
<radialGradient id="SVGID_9_" cx="120.3451" cy="184.8143" r="5.6206" gradientTransform="matrix(0.493 -0.8702 0.8702 0.493 -192.1241 75.2041)" gradientUnits="userSpaceOnUse">
	<stop  offset="0" style="stop-color:#FFFFFF"/>
	<stop  offset="1" style="stop-color:#B6B8BA"/>
</radialGradient>
<path class="st27" d="M30.8,56.7c-2.7-1.5-6.1-0.6-7.7,2.1c-1.5,2.7-0.6,6.1,2.1,7.7c2.7,1.5,6.1,0.6,7.7-2.1S33.5,58.2,30.8,56.7z"
	/>
<radialGradient id="SVGID_10_" cx="118.9913" cy="183.1318" r="12.9446" gradientTransform="matrix(0.493 -0.8702 0.8702 0.493 -192.1241 75.2041)" gradientUnits="userSpaceOnUse">
	<stop  offset="0" style="stop-color:#FFFFFF;stop-opacity:0"/>
	<stop  offset="1" style="stop-color:#C9CBCC"/>
</radialGradient>
<path class="st28" d="M20.1,48.8c-0.1,3.1-0.4,5.3-7.3,4.9c6.7,12.8,15,14.3,19.7,23.1c1.9-8.4,1.7-11.9,8.7-10.5
	C38.9,58.6,30.5,51.6,20.1,48.8z"/>
<radialGradient id="SVGID_11_" cx="-329.5671" cy="-196.1174" r="5.1217" gradientTransform="matrix(-0.3282 -0.9446 -0.9446 0.3282 -240.9627 -161.1299)" gradientUnits="userSpaceOnUse">
	<stop  offset="0" style="stop-color:#FFFFFF"/>
	<stop  offset="1" style="stop-color:#B6B8BA"/>
</radialGradient>
<path class="st29" d="M50.8,81c2.7-0.9,5.6,0.5,6.5,3.2s-0.5,5.6-3.2,6.5s-5.6-0.5-6.5-3.2C46.7,84.8,48.1,81.9,50.8,81z"/>
<radialGradient id="SVGID_12_" cx="415.1294" cy="-18.104" r="11.6873" gradientTransform="matrix(0.9336 -0.3583 -0.3583 -0.9336 -342.0286 216.8)" gradientUnits="userSpaceOnUse">
	<stop  offset="0" style="stop-color:#FFFFFF;stop-opacity:0"/>
	<stop  offset="1" style="stop-color:#C9CBCC"/>
</radialGradient>
<path class="st30" d="M64.3,90.1c-8,1-15.7,3.5-18,8.4c-1.7-6.3-0.7-6.7-5.9-8.3c6.9-3.9,3.9-7.3,3.2-13.3
	c4.8,1.8,13.1,2.1,19.5,1.4C59.8,83.6,59.9,85.7,64.3,90.1z"/>
<radialGradient id="SVGID_13_" cx="-207.2068" cy="262.1362" r="5.1215" gradientTransform="matrix(0.3834 0.9236 0.9236 -0.3834 -109.3743 353.8767)" gradientUnits="userSpaceOnUse">
	<stop  offset="0" style="stop-color:#FFFFFF"/>
	<stop  offset="1" style="stop-color:#B6B8BA"/>
</radialGradient>
<path class="st31" d="M55.3,66.7c-2.6,1.1-5.6-0.2-6.7-2.8c-1.1-2.6,0.2-5.6,2.8-6.7s5.6,0.2,6.7,2.8C59.1,62.6,57.9,65.6,55.3,66.7
	z"/>
<radialGradient id="SVGID_14_" cx="-38.875" cy="118.7525" r="11.6885" gradientTransform="matrix(-0.9108 0.4128 0.4128 0.9108 -30.7229 -29.3121)" gradientUnits="userSpaceOnUse">
	<stop  offset="0" style="stop-color:#FFFFFF;stop-opacity:0"/>
	<stop  offset="1" style="stop-color:#C9CBCC"/>
</radialGradient>
<path class="st32" d="M41.1,58.4c8-1.5,15.5-4.4,17.5-9.5c2.1,6.2,1.1,6.6,6.4,7.9c-6.6,4.3-3.5,7.5-2.4,13.5
	C57.7,68.8,49.4,69,43,70.1C46,64.7,45.8,62.5,41.1,58.4z"/>
<radialGradient id="SVGID_15_" cx="-600.2415" cy="404.4438" r="5.1171" gradientTransform="matrix(0.9741 -0.2263 -0.2263 -0.9741 704.0381 345.4224)" gradientUnits="userSpaceOnUse">
	<stop  offset="0" style="stop-color:#FFFFFF"/>
	<stop  offset="1" style="stop-color:#B6B8BA"/>
</radialGradient>
<path class="st33" d="M32.8,86.1c0.6,2.8-1.1,5.5-3.8,6.1c-2.8,0.6-5.5-1.1-6.1-3.8c-0.6-2.8,1.1-5.5,3.8-6.1S32.2,83.4,32.8,86.1z"
	/>
<radialGradient id="SVGID_16_" cx="-195.032" cy="-269.1834" r="11.7007" gradientTransform="matrix(0.2574 0.9663 0.9663 -0.2574 338.9705 206.1694)" gradientUnits="userSpaceOnUse">
	<stop  offset="0" style="stop-color:#FFFFFF;stop-opacity:0"/>
	<stop  offset="1" style="stop-color:#C9CBCC"/>
</radialGradient>
<path class="st34" d="M22.3,98.7c-0.2-8.1-1.8-16-6.5-18.8c6.5-1,6.7,0,8.9-5c3.2,7.2,6.8,4.7,12.9,4.5c-2.3,4.6-3.5,12.8-3.5,19.3
	C29.2,94.9,27.1,94.7,22.3,98.7z"/>
<g>
	<g>
		<line class="st35" x1="117.1" y1="67.1" x2="163" y2="67.1"/>
		<g>
			<polygon class="st9" points="160.1,70.8 161.7,67.1 160.1,63.4 168.9,67.1 			"/>
		</g>
	</g>
</g>
<rect x="118.4" y="72.9" class="st9" width="49.3" height="22.5"/>
<text transform="matrix(1 0 0 1 121.8789 82)" class="st36 st17 st18">Cassiopeia</text>
<text transform="matrix(1 0 0 1 121.4789 91.6)" class="st36 st17 st18">Processing</text>
<text transform="matrix(1 0 0 1 123.4468 61.3413)" class="st9 st10 st11">pre-process</text>
</svg>
