<?xml version="1.0" encoding="utf-8"?>
<!-- Generator: Adobe Illustrator 24.2.1, SVG Export Plug-In . SVG Version: 6.00 Build 0)  -->
<svg version="1.1" id="Layer_1" xmlns="http://www.w3.org/2000/svg" xmlns:xlink="http://www.w3.org/1999/xlink" x="0px" y="0px"
	 viewBox="0 0 612 792" style="enable-background:new 0 0 612 792;" xml:space="preserve">
<style type="text/css">
	.st0{fill:#231F20;}
	.st1{fill:#8CC542;}
	.st2{fill:#E9282A;}
	.st3{fill:#29ABE2;}
	.st4{fill:#FCDC07;}
	.st5{fill:#2F398F;}
	.st6{fill:#F69322;}
	.st7{fill:#E7168A;}
	.st8{fill:#D0D1D2;}
	.st9{fill:#04A54F;}
	.st10{font-family:'Helvetica';}
	.st11{font-size:7px;}
	.st12{fill:#00A69C;}
	.st13{fill:#814296;}
	.st14{fill:#079247;}
	.st15{fill:none;stroke:#231F20;stroke-miterlimit:10;}
	.st16{font-family:'Helvetica-Bold';}
	.st17{font-size:7.4134px;}
	.st18{font-size:8px;}
	.st19{fill:#29ABE2;stroke:#231F20;stroke-miterlimit:10;}
	.st20{fill:#E7168A;stroke:#231F20;stroke-miterlimit:10;}
	.st21{fill:#F69322;stroke:#231F20;stroke-miterlimit:10;}
	.st22{fill:#2F398F;stroke:#231F20;stroke-miterlimit:10;}
	.st23{fill:#814296;stroke:#231F20;stroke-miterlimit:10;}
	.st24{fill:#8CC542;stroke:#231F20;stroke-miterlimit:10;}
	.st25{fill:#079247;stroke:#231F20;stroke-miterlimit:10;}
	.st26{fill:#E9282A;stroke:#231F20;stroke-miterlimit:10;}
	.st27{fill:#00A69C;stroke:#231F20;stroke-miterlimit:10;}
	.st28{fill:#FCDC07;stroke:#231F20;stroke-miterlimit:10;}
	.st29{fill:none;stroke:#231F20;stroke-width:2;stroke-miterlimit:10;}
	.st30{fill:#FFFFFF;}
</style>
<rect x="241.7" y="167.1" class="st0" width="52.4" height="22.5"/>
<rect x="157.4" y="273" class="st1" width="3.7" height="3.7"/>
<rect x="157.4" y="269.3" class="st2" width="3.7" height="3.7"/>
<rect x="157.4" y="276.7" class="st3" width="3.7" height="3.7"/>
<rect x="153.7" y="273" class="st4" width="3.7" height="3.7"/>
<rect x="153.7" y="269.3" class="st5" width="3.7" height="3.7"/>
<rect x="153.7" y="276.7" class="st6" width="3.7" height="3.7"/>
<rect x="150" y="273" class="st7" width="3.7" height="3.7"/>
<rect x="150" y="269.3" class="st8" width="3.7" height="3.7"/>
<rect x="150" y="276.7" class="st9" width="3.7" height="3.7"/>
<text transform="matrix(1 0 0 1 163.6733 272.0581)"><tspan x="0" y="0" class="st0 st10 st11">unique indels</tspan><tspan x="0" y="8.4" class="st0 st10 st11">(“character states”)</tspan></text>
<rect x="162.9" y="132.9" class="st8" width="16.4" height="16.4"/>
<rect x="146.5" y="132.9" class="st4" width="16.4" height="16.4"/>
<rect x="211.9" y="132.9" class="st2" width="16.4" height="16.4"/>
<rect x="179.2" y="132.9" class="st8" width="16.4" height="16.4"/>
<rect x="162.9" y="149.3" class="st1" width="16.4" height="16.4"/>
<rect x="146.5" y="149.3" class="st4" width="16.4" height="16.4"/>
<rect x="211.9" y="149.3" class="st2" width="16.4" height="16.4"/>
<rect x="179.2" y="149.3" class="st8" width="16.4" height="16.4"/>
<rect x="162.9" y="165.6" class="st5" width="16.4" height="16.4"/>
<rect x="146.5" y="165.6" class="st4" width="16.4" height="16.4"/>
<rect x="211.9" y="165.6" class="st2" width="16.4" height="16.4"/>
<rect x="179.2" y="165.6" class="st8" width="16.4" height="16.4"/>
<rect x="162.9" y="182" class="st8" width="16.4" height="16.4"/>
<rect x="146.5" y="182" class="st8" width="16.4" height="16.4"/>
<rect x="211.9" y="182" class="st2" width="16.4" height="16.4"/>
<rect x="179.2" y="182" class="st12" width="16.4" height="16.4"/>
<rect x="195.6" y="132.9" class="st6" width="16.4" height="16.4"/>
<rect x="195.6" y="149.3" class="st8" width="16.4" height="16.4"/>
<rect x="195.6" y="165.6" class="st6" width="16.4" height="16.4"/>
<rect x="195.6" y="182" class="st13" width="16.4" height="16.4"/>
<rect x="163.1" y="198.4" class="st7" width="16.4" height="16.4"/>
<rect x="146.7" y="198.4" class="st3" width="16.4" height="16.4"/>
<rect x="212.1" y="198.4" class="st8" width="16.4" height="16.4"/>
<rect x="179.4" y="198.4" class="st5" width="16.4" height="16.4"/>
<rect x="163.1" y="214.7" class="st8" width="16.4" height="16.4"/>
<rect x="146.7" y="214.7" class="st3" width="16.4" height="16.4"/>
<rect x="212.1" y="214.7" class="st14" width="16.4" height="16.4"/>
<rect x="179.4" y="214.7" class="st13" width="16.4" height="16.4"/>
<rect x="163.1" y="231.1" class="st8" width="16.4" height="16.4"/>
<rect x="146.7" y="231.1" class="st3" width="16.4" height="16.4"/>
<rect x="212.1" y="231.1" class="st1" width="16.4" height="16.4"/>
<rect x="179.4" y="231.1" class="st13" width="16.4" height="16.4"/>
<rect x="163.1" y="247.4" class="st7" width="16.4" height="16.4"/>
<rect x="146.7" y="247.4" class="st3" width="16.4" height="16.4"/>
<rect x="212.1" y="247.4" class="st8" width="16.4" height="16.4"/>
<rect x="179.4" y="247.4" class="st8" width="16.4" height="16.4"/>
<rect x="195.8" y="198.4" class="st8" width="16.4" height="16.4"/>
<rect x="195.8" y="214.7" class="st8" width="16.4" height="16.4"/>
<rect x="195.8" y="231.1" class="st8" width="16.4" height="16.4"/>
<rect x="195.8" y="247.4" class="st6" width="16.4" height="16.4"/>
<rect x="146.5" y="132.9" class="st15" width="81.8" height="130.8"/>
<g>
	<polyline class="st15" points="319.5,230.8 304.4,230.8 304.4,176 319.5,176 	"/>
	<line class="st15" x1="304.4" y1="203.4" x2="293.4" y2="203.4"/>
	<polyline class="st15" points="361.1,189.6 319.6,189.6 319.6,164.7 333.3,164.7 	"/>
	<polyline class="st15" points="333.4,246.8 319.6,246.8 319.6,214.8 333.3,214.8 	"/>
	<polyline class="st15" points="361.1,221.2 333.3,221.2 333.3,205.4 361.1,205.4 	"/>
	<polyline class="st15" points="361.1,173.7 333.3,173.7 333.3,150 347.1,150 	"/>
	<polyline class="st15" points="361.1,158.8 347.1,158.8 347.1,141.3 361.1,141.3 	"/>
	<polyline class="st15" points="361.1,255.5 333.3,255.5 333.3,238 361.1,238 	"/>
</g>
<g>
	<g>
		<line class="st15" x1="312" y1="256.1" x2="312" y2="239.4"/>
		<g>
			<polygon class="st0" points="313.8,240.9 312,240.1 310.1,240.9 312,236.5 			"/>
		</g>
	</g>
</g>
<text transform="matrix(1 0 0 1 298.9199 264.4507)"><tspan x="0" y="0" class="st3 st16 st11">inferred</tspan><tspan x="-8.4" y="8.4" class="st3 st16 st11">state change</tspan></text>
<text transform="matrix(1 0 0 1 137.0869 145.1763)" class="st0 st10 st17">A</text>
<text transform="matrix(1 0 0 1 137.248 161.2593)" class="st0 st10 st17">B</text>
<text transform="matrix(1 0 0 1 137.0429 177.3428)" class="st0 st10 st17">C</text>
<text transform="matrix(1 0 0 1 137.0429 193.4258)" class="st0 st10 st17">D</text>
<text transform="matrix(1 0 0 1 132.0005 119.5342)" class="st0 st16 st18">summarized character matrix</text>
<text transform="matrix(1 0 0 1 137.248 209.5088)" class="st0 st10 st17">E</text>
<text transform="matrix(1 0 0 1 137.4555 225.5928)" class="st0 st10 st17">F</text>
<text transform="matrix(1 0 0 1 136.8364 241.6753)" class="st0 st10 st17">G</text>
<text transform="matrix(1 0 0 1 171.2129 129.3018)" class="st0 st10 st11">characters</text>
<text transform="matrix(0 -1 1 0 134.6225 206.6182)" class="st0 st10 st11">cells</text>
<line class="st15" x1="132.9" y1="132.9" x2="132.9" y2="190.6"/>
<line class="st15" x1="132.9" y1="208.5" x2="132.9" y2="263.8"/>
<line class="st15" x1="228.3" y1="127.4" x2="207.2" y2="127.4"/>
<line class="st15" x1="169" y1="127.4" x2="146.5" y2="127.4"/>
<text transform="matrix(1 0 0 1 136.8818 257.7588)" class="st0 st10 st17">H</text>
<rect x="390" y="132.9" class="st8" width="16.4" height="16.4"/>
<rect x="373.6" y="132.9" class="st4" width="16.4" height="16.4"/>
<rect x="439.1" y="132.9" class="st2" width="16.4" height="16.4"/>
<rect x="406.4" y="132.9" class="st8" width="16.4" height="16.4"/>
<rect x="390" y="165.6" class="st1" width="16.4" height="16.4"/>
<rect x="373.6" y="165.6" class="st4" width="16.4" height="16.4"/>
<rect x="439.1" y="165.6" class="st2" width="16.4" height="16.4"/>
<rect x="406.4" y="165.6" class="st8" width="16.4" height="16.4"/>
<rect x="390" y="149.3" class="st5" width="16.4" height="16.4"/>
<rect x="373.6" y="149.3" class="st4" width="16.4" height="16.4"/>
<rect x="439.1" y="149.3" class="st2" width="16.4" height="16.4"/>
<rect x="406.4" y="149.3" class="st8" width="16.4" height="16.4"/>
<rect x="390" y="182" class="st8" width="16.4" height="16.4"/>
<rect x="373.6" y="182" class="st8" width="16.4" height="16.4"/>
<rect x="439.1" y="182" class="st2" width="16.4" height="16.4"/>
<rect x="406.4" y="182" class="st12" width="16.4" height="16.4"/>
<rect x="422.7" y="132.9" class="st6" width="16.4" height="16.4"/>
<rect x="422.7" y="165.6" class="st8" width="16.4" height="16.4"/>
<rect x="422.7" y="149.3" class="st6" width="16.4" height="16.4"/>
<rect x="422.7" y="182" class="st13" width="16.4" height="16.4"/>
<rect x="390" y="231.1" class="st7" width="16.4" height="16.4"/>
<rect x="373.6" y="231.1" class="st3" width="16.4" height="16.4"/>
<rect x="439.1" y="231.1" class="st8" width="16.4" height="16.4"/>
<rect x="406.4" y="231.1" class="st5" width="16.4" height="16.4"/>
<rect x="390" y="214.7" class="st8" width="16.4" height="16.4"/>
<rect x="373.6" y="214.7" class="st3" width="16.4" height="16.4"/>
<rect x="439.1" y="214.7" class="st14" width="16.4" height="16.4"/>
<rect x="406.4" y="214.7" class="st13" width="16.4" height="16.4"/>
<rect x="390" y="198.4" class="st8" width="16.4" height="16.4"/>
<rect x="373.6" y="198.4" class="st3" width="16.4" height="16.4"/>
<rect x="439.1" y="198.4" class="st1" width="16.4" height="16.4"/>
<rect x="406.4" y="198.4" class="st13" width="16.4" height="16.4"/>
<rect x="390" y="247.4" class="st7" width="16.4" height="16.4"/>
<rect x="373.6" y="247.4" class="st3" width="16.4" height="16.4"/>
<rect x="439.1" y="247.4" class="st8" width="16.4" height="16.4"/>
<rect x="406.4" y="247.4" class="st8" width="16.4" height="16.4"/>
<rect x="422.7" y="231.1" class="st8" width="16.4" height="16.4"/>
<rect x="422.7" y="214.7" class="st8" width="16.4" height="16.4"/>
<rect x="422.7" y="198.4" class="st8" width="16.4" height="16.4"/>
<rect x="422.7" y="247.4" class="st6" width="16.4" height="16.4"/>
<rect x="373.6" y="132.9" class="st15" width="81.8" height="130.8"/>
<text transform="matrix(1 0 0 1 364.3496 144.2495)" class="st0 st10 st11">A</text>
<text transform="matrix(1 0 0 1 364.3174 160.4649)" class="st0 st10 st11">C</text>
<text transform="matrix(1 0 0 1 364.5097 176.6812)" class="st0 st10 st11">B</text>
<text transform="matrix(1 0 0 1 364.3174 192.8965)" class="st0 st10 st11">D</text>
<text transform="matrix(1 0 0 1 364.122 209.1118)" class="st0 st10 st11">G</text>
<text transform="matrix(1 0 0 1 364.707 225.3277)" class="st0 st10 st11">F</text>
<text transform="matrix(1 0 0 1 364.5097 241.543)" class="st0 st10 st11">E</text>
<text transform="matrix(1 0 0 1 364.1562 257.7588)" class="st0 st10 st11">H</text>
<rect x="309.3" y="228.1" class="st19" width="5.4" height="5.4"/>
<rect x="323.8" y="244.1" class="st20" width="5.4" height="5.4"/>
<rect x="344.7" y="252.9" class="st21" width="5.4" height="5.4"/>
<rect x="344.7" y="235.3" class="st22" width="5.4" height="5.4"/>
<rect x="323.8" y="212.1" class="st23" width="5.4" height="5.4"/>
<rect x="344.7" y="202.7" class="st24" width="5.4" height="5.4"/>
<rect x="344.7" y="218.5" class="st25" width="5.4" height="5.4"/>
<rect x="309.3" y="173.3" class="st26" width="5.4" height="5.4"/>
<rect x="323.8" y="186.9" class="st27" width="5.4" height="5.4"/>
<rect x="337.7" y="186.9" class="st23" width="5.4" height="5.4"/>
<rect x="323.8" y="162" class="st28" width="5.4" height="5.4"/>
<rect x="337.7" y="171" class="st24" width="5.4" height="5.4"/>
<rect x="337.7" y="147.3" class="st21" width="5.4" height="5.4"/>
<rect x="351.4" y="156.1" class="st22" width="5.4" height="5.4"/>
<text transform="matrix(1 0 0 1 338.5117 121.5342)" class="st0 st16 st18">reconstructed phylogenetic tree</text>
<g>
	<g>
		<line class="st29" x1="242.6" y1="160.7" x2="288.5" y2="160.7"/>
		<g>
			<polygon class="st0" points="285.7,164.4 287.3,160.7 285.7,157 294.5,160.7 			"/>
		</g>
	</g>
</g>
<text transform="matrix(1 0 0 1 244.0966 146.0112)"><tspan x="0" y="0" class="st0 st10 st11">infer phylogeny</tspan><tspan x="-9.3" y="8.4" class="st0 st10 st11">from character matrix</tspan></text>
<text transform="matrix(1 0 0 1 246.8095 176.2095)"><tspan x="0" y="0" class="st30 st16 st18">Cassiopeia</tspan><tspan x="-2.2" y="9.6" class="st30 st16 st18">Reconstruct</tspan></text>
</svg>
