<?xml version="1.0" encoding="utf-8"?>
<!-- Generator: Adobe Illustrator 24.2.1, SVG Export Plug-In . SVG Version: 6.00 Build 0)  -->
<svg version="1.1" id="Layer_1" xmlns="http://www.w3.org/2000/svg" xmlns:xlink="http://www.w3.org/1999/xlink" x="0px" y="0px"
	 viewBox="0 0 358 196" style="enable-background:new 0 0 358 196;" xml:space="preserve">
<style type="text/css">
	.st0{fill:#231F20;}
	.st1{fill:#8CC542;}
	.st2{fill:#E9282A;}
	.st3{fill:#29ABE2;}
	.st4{fill:#FCDC07;}
	.st5{fill:#2F398F;}
	.st6{fill:#F69322;}
	.st7{fill:#E7168A;}
	.st8{fill:#D0D1D2;}
	.st9{fill:#04A54F;}
	.st10{font-family:'Helvetica';}
	.st11{font-size:7px;}
	.st12{fill:#00A69C;}
	.st13{fill:#814296;}
	.st14{fill:#079247;}
	.st15{fill:none;stroke:#231F20;stroke-miterlimit:10;}
	.st16{font-family:'Helvetica-Bold';}
	.st17{font-size:7.4134px;}
	.st18{font-size:8px;}
	.st19{fill:#29ABE2;stroke:#231F20;stroke-miterlimit:10;}
	.st20{fill:#E7168A;stroke:#231F20;stroke-miterlimit:10;}
	.st21{fill:#F69322;stroke:#231F20;stroke-miterlimit:10;}
	.st22{fill:#2F398F;stroke:#231F20;stroke-miterlimit:10;}
	.st23{fill:#814296;stroke:#231F20;stroke-miterlimit:10;}
	.st24{fill:#8CC542;stroke:#231F20;stroke-miterlimit:10;}
	.st25{fill:#079247;stroke:#231F20;stroke-miterlimit:10;}
	.st26{fill:#E9282A;stroke:#231F20;stroke-miterlimit:10;}
	.st27{fill:#00A69C;stroke:#231F20;stroke-miterlimit:10;}
	.st28{fill:#FCDC07;stroke:#231F20;stroke-miterlimit:10;}
	.st29{fill:none;stroke:#231F20;stroke-width:2;stroke-miterlimit:10;}
	.st30{fill:#FFFFFF;}
</style>
<rect x="123.7" y="62.1" class="st0" width="52.4" height="22.5"/>
<rect x="39.4" y="168" class="st1" width="3.7" height="3.7"/>
<rect x="39.4" y="164.3" class="st2" width="3.7" height="3.7"/>
<rect x="39.4" y="171.7" class="st3" width="3.7" height="3.7"/>
<rect x="35.7" y="168" class="st4" width="3.7" height="3.7"/>
<rect x="35.7" y="164.3" class="st5" width="3.7" height="3.7"/>
<rect x="35.7" y="171.7" class="st6" width="3.7" height="3.7"/>
<rect x="32" y="168" class="st7" width="3.7" height="3.7"/>
<rect x="32" y="164.3" class="st8" width="3.7" height="3.7"/>
<rect x="32" y="171.7" class="st9" width="3.7" height="3.7"/>
<text transform="matrix(1 0 0 1 45.6733 167.0581)" class="st0 st10 st11">unique indels</text>
<text transform="matrix(1 0 0 1 45.6733 175.4581)" class="st0 st10 st11">(“character states”)</text>
<rect x="44.9" y="27.9" class="st8" width="16.4" height="16.4"/>
<rect x="28.5" y="27.9" class="st4" width="16.4" height="16.4"/>
<rect x="93.9" y="27.9" class="st2" width="16.4" height="16.4"/>
<rect x="61.2" y="27.9" class="st8" width="16.4" height="16.4"/>
<rect x="44.9" y="44.3" class="st1" width="16.4" height="16.4"/>
<rect x="28.5" y="44.3" class="st4" width="16.4" height="16.4"/>
<rect x="93.9" y="44.3" class="st2" width="16.4" height="16.4"/>
<rect x="61.2" y="44.3" class="st8" width="16.4" height="16.4"/>
<rect x="44.9" y="60.6" class="st5" width="16.4" height="16.4"/>
<rect x="28.5" y="60.6" class="st4" width="16.4" height="16.4"/>
<rect x="93.9" y="60.6" class="st2" width="16.4" height="16.4"/>
<rect x="61.2" y="60.6" class="st8" width="16.4" height="16.4"/>
<rect x="44.9" y="77" class="st8" width="16.4" height="16.4"/>
<rect x="28.5" y="77" class="st8" width="16.4" height="16.4"/>
<rect x="93.9" y="77" class="st2" width="16.4" height="16.4"/>
<rect x="61.2" y="77" class="st12" width="16.4" height="16.4"/>
<rect x="77.6" y="27.9" class="st6" width="16.4" height="16.4"/>
<rect x="77.6" y="44.3" class="st8" width="16.4" height="16.4"/>
<rect x="77.6" y="60.6" class="st6" width="16.4" height="16.4"/>
<rect x="77.6" y="77" class="st13" width="16.4" height="16.4"/>
<rect x="45.1" y="93.4" class="st7" width="16.4" height="16.4"/>
<rect x="28.7" y="93.4" class="st3" width="16.4" height="16.4"/>
<rect x="94.1" y="93.4" class="st8" width="16.4" height="16.4"/>
<rect x="61.4" y="93.4" class="st5" width="16.4" height="16.4"/>
<rect x="45.1" y="109.7" class="st8" width="16.4" height="16.4"/>
<rect x="28.7" y="109.7" class="st3" width="16.4" height="16.4"/>
<rect x="94.1" y="109.7" class="st14" width="16.4" height="16.4"/>
<rect x="61.4" y="109.7" class="st13" width="16.4" height="16.4"/>
<rect x="45.1" y="126.1" class="st8" width="16.4" height="16.4"/>
<rect x="28.7" y="126.1" class="st3" width="16.4" height="16.4"/>
<rect x="94.1" y="126.1" class="st1" width="16.4" height="16.4"/>
<rect x="61.4" y="126.1" class="st13" width="16.4" height="16.4"/>
<rect x="45.1" y="142.4" class="st7" width="16.4" height="16.4"/>
<rect x="28.7" y="142.4" class="st3" width="16.4" height="16.4"/>
<rect x="94.1" y="142.4" class="st8" width="16.4" height="16.4"/>
<rect x="61.4" y="142.4" class="st8" width="16.4" height="16.4"/>
<rect x="77.8" y="93.4" class="st8" width="16.4" height="16.4"/>
<rect x="77.8" y="109.7" class="st8" width="16.4" height="16.4"/>
<rect x="77.8" y="126.1" class="st8" width="16.4" height="16.4"/>
<rect x="77.8" y="142.4" class="st6" width="16.4" height="16.4"/>
<rect x="28.5" y="27.9" class="st15" width="81.8" height="130.8"/>
<g>
	<polyline class="st15" points="201.5,125.8 186.4,125.8 186.4,71 201.5,71 	"/>
	<line class="st15" x1="186.4" y1="98.4" x2="175.4" y2="98.4"/>
	<polyline class="st15" points="243.1,84.6 201.6,84.6 201.6,59.7 215.3,59.7 	"/>
	<polyline class="st15" points="215.4,141.8 201.6,141.8 201.6,109.8 215.3,109.8 	"/>
	<polyline class="st15" points="243.1,116.2 215.3,116.2 215.3,100.4 243.1,100.4 	"/>
	<polyline class="st15" points="243.1,68.7 215.3,68.7 215.3,45 229.1,45 	"/>
	<polyline class="st15" points="243.1,53.8 229.1,53.8 229.1,36.3 243.1,36.3 	"/>
	<polyline class="st15" points="243.1,150.5 215.3,150.5 215.3,133 243.1,133 	"/>
</g>
<g>
	<g>
		<line class="st15" x1="194" y1="151.1" x2="194" y2="134.4"/>
		<g>
			<polygon class="st0" points="195.8,135.9 194,135.1 192.1,135.9 194,131.5 			"/>
		</g>
	</g>
</g>
<text transform="matrix(1 0 0 1 180.9199 159.4507)" class="st3 st16 st11">inferred</text>
<text transform="matrix(1 0 0 1 172.5199 167.8507)" class="st3 st16 st11">state change</text>
<text transform="matrix(1 0 0 1 19.0869 40.1763)" class="st0 st10 st17">A</text>
<text transform="matrix(1 0 0 1 19.248 56.2593)" class="st0 st10 st17">B</text>
<text transform="matrix(1 0 0 1 19.0429 72.3428)" class="st0 st10 st17">C</text>
<text transform="matrix(1 0 0 1 19.0429 88.4258)" class="st0 st10 st17">D</text>
<text transform="matrix(1 0 0 1 14.0005 14.5342)" class="st0 st16 st18">summarized character matrix</text>
<text transform="matrix(1 0 0 1 19.248 104.5088)" class="st0 st10 st17">E</text>
<text transform="matrix(1 0 0 1 19.4555 120.5928)" class="st0 st10 st17">F</text>
<text transform="matrix(1 0 0 1 18.8364 136.6753)" class="st0 st10 st17">G</text>
<text transform="matrix(1 0 0 1 53.2129 24.3018)" class="st0 st10 st11">characters</text>
<text transform="matrix(0 -1 1 0 16.6225 101.6182)" class="st0 st10 st11">cells</text>
<line class="st15" x1="14.9" y1="27.9" x2="14.9" y2="85.6"/>
<line class="st15" x1="14.9" y1="103.5" x2="14.9" y2="158.8"/>
<line class="st15" x1="110.3" y1="22.4" x2="89.2" y2="22.4"/>
<line class="st15" x1="51" y1="22.4" x2="28.5" y2="22.4"/>
<text transform="matrix(1 0 0 1 18.8818 152.7588)" class="st0 st10 st17">H</text>
<rect x="272" y="27.9" class="st8" width="16.4" height="16.4"/>
<rect x="255.6" y="27.9" class="st4" width="16.4" height="16.4"/>
<rect x="321.1" y="27.9" class="st2" width="16.4" height="16.4"/>
<rect x="288.4" y="27.9" class="st8" width="16.4" height="16.4"/>
<rect x="272" y="60.6" class="st1" width="16.4" height="16.4"/>
<rect x="255.6" y="60.6" class="st4" width="16.4" height="16.4"/>
<rect x="321.1" y="60.6" class="st2" width="16.4" height="16.4"/>
<rect x="288.4" y="60.6" class="st8" width="16.4" height="16.4"/>
<rect x="272" y="44.3" class="st5" width="16.4" height="16.4"/>
<rect x="255.6" y="44.3" class="st4" width="16.4" height="16.4"/>
<rect x="321.1" y="44.3" class="st2" width="16.4" height="16.4"/>
<rect x="288.4" y="44.3" class="st8" width="16.4" height="16.4"/>
<rect x="272" y="77" class="st8" width="16.4" height="16.4"/>
<rect x="255.6" y="77" class="st8" width="16.4" height="16.4"/>
<rect x="321.1" y="77" class="st2" width="16.4" height="16.4"/>
<rect x="288.4" y="77" class="st12" width="16.4" height="16.4"/>
<rect x="304.7" y="27.9" class="st6" width="16.4" height="16.4"/>
<rect x="304.7" y="60.6" class="st8" width="16.4" height="16.4"/>
<rect x="304.7" y="44.3" class="st6" width="16.4" height="16.4"/>
<rect x="304.7" y="77" class="st13" width="16.4" height="16.4"/>
<rect x="272" y="126.1" class="st7" width="16.4" height="16.4"/>
<rect x="255.6" y="126.1" class="st3" width="16.4" height="16.4"/>
<rect x="321.1" y="126.1" class="st8" width="16.4" height="16.4"/>
<rect x="288.4" y="126.1" class="st5" width="16.4" height="16.4"/>
<rect x="272" y="109.7" class="st8" width="16.4" height="16.4"/>
<rect x="255.6" y="109.7" class="st3" width="16.4" height="16.4"/>
<rect x="321.1" y="109.7" class="st14" width="16.4" height="16.4"/>
<rect x="288.4" y="109.7" class="st13" width="16.4" height="16.4"/>
<rect x="272" y="93.4" class="st8" width="16.4" height="16.4"/>
<rect x="255.6" y="93.4" class="st3" width="16.4" height="16.4"/>
<rect x="321.1" y="93.4" class="st1" width="16.4" height="16.4"/>
<rect x="288.4" y="93.4" class="st13" width="16.4" height="16.4"/>
<rect x="272" y="142.4" class="st7" width="16.4" height="16.4"/>
<rect x="255.6" y="142.4" class="st3" width="16.4" height="16.4"/>
<rect x="321.1" y="142.4" class="st8" width="16.4" height="16.4"/>
<rect x="288.4" y="142.4" class="st8" width="16.4" height="16.4"/>
<rect x="304.7" y="126.1" class="st8" width="16.4" height="16.4"/>
<rect x="304.7" y="109.7" class="st8" width="16.4" height="16.4"/>
<rect x="304.7" y="93.4" class="st8" width="16.4" height="16.4"/>
<rect x="304.7" y="142.4" class="st6" width="16.4" height="16.4"/>
<rect x="255.6" y="27.9" class="st15" width="81.8" height="130.8"/>
<text transform="matrix(1 0 0 1 246.3496 39.2495)" class="st0 st10 st11">A</text>
<text transform="matrix(1 0 0 1 246.3174 55.4649)" class="st0 st10 st11">C</text>
<text transform="matrix(1 0 0 1 246.5097 71.6812)" class="st0 st10 st11">B</text>
<text transform="matrix(1 0 0 1 246.3174 87.8965)" class="st0 st10 st11">D</text>
<text transform="matrix(1 0 0 1 246.122 104.1118)" class="st0 st10 st11">G</text>
<text transform="matrix(1 0 0 1 246.707 120.3277)" class="st0 st10 st11">F</text>
<text transform="matrix(1 0 0 1 246.5097 136.543)" class="st0 st10 st11">E</text>
<text transform="matrix(1 0 0 1 246.1562 152.7588)" class="st0 st10 st11">H</text>
<rect x="191.3" y="123.1" class="st19" width="5.4" height="5.4"/>
<rect x="205.8" y="139.1" class="st20" width="5.4" height="5.4"/>
<rect x="226.7" y="147.9" class="st21" width="5.4" height="5.4"/>
<rect x="226.7" y="130.3" class="st22" width="5.4" height="5.4"/>
<rect x="205.8" y="107.1" class="st23" width="5.4" height="5.4"/>
<rect x="226.7" y="97.7" class="st24" width="5.4" height="5.4"/>
<rect x="226.7" y="113.5" class="st25" width="5.4" height="5.4"/>
<rect x="191.3" y="68.3" class="st26" width="5.4" height="5.4"/>
<rect x="205.8" y="81.9" class="st27" width="5.4" height="5.4"/>
<rect x="219.7" y="81.9" class="st23" width="5.4" height="5.4"/>
<rect x="205.8" y="57" class="st28" width="5.4" height="5.4"/>
<rect x="219.7" y="66" class="st24" width="5.4" height="5.4"/>
<rect x="219.7" y="42.3" class="st21" width="5.4" height="5.4"/>
<rect x="233.4" y="51.1" class="st22" width="5.4" height="5.4"/>
<text transform="matrix(1 0 0 1 220.5117 16.5342)" class="st0 st16 st18">reconstructed phylogenetic tree</text>
<g>
	<g>
		<line class="st29" x1="124.6" y1="55.7" x2="170.5" y2="55.7"/>
		<g>
			<polygon class="st0" points="167.7,59.4 169.3,55.7 167.7,52 176.5,55.7 			"/>
		</g>
	</g>
</g>
<text transform="matrix(1 0 0 1 126.0966 41.0112)" class="st0 st10 st11">infer phylogeny</text>
<text transform="matrix(1 0 0 1 116.7966 49.4112)" class="st0 st10 st11">from character matrix</text>
<text transform="matrix(1 0 0 1 128.8095 71.2095)" class="st30 st16 st18">Cassiopeia</text>
<text transform="matrix(1 0 0 1 126.6095 80.8095)" class="st30 st16 st18">Reconstruct</text>
</svg>
